<svg xmlns="http://www.w3.org/2000/svg" viewBox="0 0 28.38 31.54"><defs><style>.cls-1{fill:#d9d9d9;}</style></defs><title>Asset 3</title><g id="Layer_2" data-name="Layer 2"><g id="Layer_1-2" data-name="Layer 1"><path class="cls-1" d="M23.36,3.9A.75.75,0,0,1,23,3.8a18.08,18.08,0,0,0-8.79-2.22A18.07,18.07,0,0,0,5.43,3.8a.79.79,0,0,1-.76-1.39,20.06,20.06,0,0,1,19,0,.76.76,0,0,1,.33,1.05A.77.77,0,0,1,23.36,3.9ZM.79,12.17A.77.77,0,0,1,.34,12a.77.77,0,0,1-.19-1.1A16.37,16.37,0,0,1,6.06,5.77a18.2,18.2,0,0,1,16.26,0,16.27,16.27,0,0,1,5.91,5.12.79.79,0,1,1-1.29.92,14.81,14.81,0,0,0-5.35-4.64,16.58,16.58,0,0,0-14.82,0,15,15,0,0,0-5.36,4.66A.69.69,0,0,1,.79,12.17Zm9.86,19A.72.72,0,0,1,10.1,31a15.76,15.76,0,0,1-3.17-4.16A14,14,0,0,1,5.27,20a8.74,8.74,0,0,1,8.93-8.5A8.73,8.73,0,0,1,23.12,20a.79.79,0,1,1-1.57,0A7.16,7.16,0,0,0,14.2,13,7.16,7.16,0,0,0,6.85,20,12.3,12.3,0,0,0,8.32,26a15,15,0,0,0,2.91,3.81.81.81,0,0,1,0,1.12A.85.85,0,0,1,10.65,31.21ZM22,28.29A8.41,8.41,0,0,1,13.31,20a.79.79,0,0,1,1.58,0A6.79,6.79,0,0,0,18,25.58a6.9,6.9,0,0,0,4,1.12,10.49,10.49,0,0,0,1.64-.16.79.79,0,0,1,.26,1.56A10.05,10.05,0,0,1,22,28.29Zm-3.17,3.25-.21,0a12.34,12.34,0,0,1-5.86-3.31A11.52,11.52,0,0,1,9.29,20a4.76,4.76,0,0,1,4.86-4.63A4.76,4.76,0,0,1,19,20a3.29,3.29,0,0,0,6.56,0c0-5.94-5.13-10.77-11.44-10.77A11.53,11.53,0,0,0,3.71,15.55,10.2,10.2,0,0,0,2.78,20a15.66,15.66,0,0,0,1.06,5.7.78.78,0,0,1-.46,1,.79.79,0,0,1-1-.46A17.67,17.67,0,0,1,1.22,20a11.78,11.78,0,0,1,1.07-5.1A13.09,13.09,0,0,1,14.13,7.6c7.18,0,13,5.54,13,12.35a4.87,4.87,0,0,1-9.72,0,3.18,3.18,0,0,0-3.28-3.06A3.18,3.18,0,0,0,10.87,20a9.91,9.91,0,0,0,3,7.11A10.78,10.78,0,0,0,19,30a.78.78,0,0,1,.55,1A.77.77,0,0,1,18.79,31.54Z"/></g></g></svg>