<svg xmlns="http://www.w3.org/2000/svg" viewBox="0 0 207.64 180.82"><defs><style>.cls-1{fill:#000;;stroke-miterlimit:10;}</style></defs><title>logo_1</title><g id="Layer_2" data-name="Layer 2"><g id="Layer_1-2" data-name="Layer 1"><path class="cls-1" d="M26.26,137.17H40.58a1.25,1.25,0,0,0,1.08-.62l13.07-22.37a1.27,1.27,0,0,1,1.08-.62H151a1.25,1.25,0,0,1,1.08.62l28.95,49a1.26,1.26,0,0,1-1.08,1.89H9.25a1.23,1.23,0,0,0-1.07.61L.68,178.43a1.25,1.25,0,0,0,1.07,1.89H205.89a1.25,1.25,0,0,0,1.08-1.88L160.4,98.13a1.26,1.26,0,0,0-1.08-.63l-93-.23a1.25,1.25,0,0,1-1.08-1.88l37.48-64.81a1.25,1.25,0,0,1,2.17,0l21.75,38.35a1.24,1.24,0,0,0,1.11.63l14.58-.2a1.25,1.25,0,0,0,1.06-1.88L104.9,1.12a1.25,1.25,0,0,0-2.17,0L25.17,135.29A1.25,1.25,0,0,0,26.26,137.17Z"/></g></g></svg>